<?xml version="1.0" encoding="UTF-8"?>
<svg xmlns="http://www.w3.org/2000/svg" xmlns:xlink="http://www.w3.org/1999/xlink" width="32pt" height="32pt" viewBox="0 0 32 32" version="1.1">
<g id="surface1">
<path style=" stroke:none;fill-rule:nonzero;fill:rgb(83.921569%,30.196078%,48.235294%);fill-opacity:1;" d="M 25.601562 16 C 25.601562 21.300781 21.300781 25.601562 16 25.601562 C 10.699219 25.601562 6.398438 21.300781 6.398438 16 C 6.398438 10.699219 10.699219 6.398438 16 6.398438 C 21.300781 6.398438 25.601562 10.699219 25.601562 16 Z M 25.601562 16 "/>
<path style=" stroke:none;fill-rule:nonzero;fill:rgb(83.921569%,30.196078%,48.235294%);fill-opacity:0.8;" d="M 27.199219 16 C 27.199219 22.1875 22.1875 27.199219 16 27.199219 C 9.8125 27.199219 4.800781 22.1875 4.800781 16 C 4.800781 9.8125 9.8125 4.800781 16 4.800781 C 22.1875 4.800781 27.199219 9.8125 27.199219 16 Z M 27.199219 16 "/>
<path style=" stroke:none;fill-rule:nonzero;fill:rgb(83.921569%,30.196078%,48.235294%);fill-opacity:0.501961;" d="M 28.800781 16 C 28.800781 23.070312 23.070312 28.800781 16 28.800781 C 8.929688 28.800781 3.199219 23.070312 3.199219 16 C 3.199219 8.929688 8.929688 3.199219 16 3.199219 C 23.070312 3.199219 28.800781 8.929688 28.800781 16 Z M 28.800781 16 "/>
<path style=" stroke:none;fill-rule:nonzero;fill:rgb(83.921569%,30.196078%,48.235294%);fill-opacity:0.2;" d="M 30.398438 16 C 30.398438 23.953125 23.953125 30.398438 16 30.398438 C 8.046875 30.398438 1.601562 23.953125 1.601562 16 C 1.601562 8.046875 8.046875 1.601562 16 1.601562 C 23.953125 1.601562 30.398438 8.046875 30.398438 16 Z M 30.398438 16 "/>
<path style=" stroke:none;fill-rule:nonzero;fill:rgb(83.921569%,30.196078%,48.235294%);fill-opacity:0.2;" d="M 32 16 C 32 24.835938 24.835938 32 16 32 C 7.164062 32 0 24.835938 0 16 C 0 7.164062 7.164062 0 16 0 C 24.835938 0 32 7.164062 32 16 Z M 32 16 "/>
</g>
</svg>
