<svg width="758" height="533" viewBox="0 0 758 533" fill="none" xmlns="http://www.w3.org/2000/svg">
<path d="M136.687 422.429L144.031 418.189L134.4 413.588C136.574 410.393 136.786 406.76 134.726 403.192C131.526 397.65 125.389 396.62 118.772 400.44L107.687 406.84L121.687 431.089L128.546 427.129L124.826 420.686L128.567 418.526L136.687 422.429ZM127.797 407.192C129.077 409.409 128.417 411.546 125.577 413.186L121.766 415.386L117.666 408.284L121.477 406.084C124.317 404.444 126.497 404.941 127.797 407.192ZM146.078 391.557C143.619 392.977 142.183 394.73 141.796 396.939L140.716 395.069L134.446 398.689L149.166 424.185L155.748 420.385L150.908 412.001C152.949 412.578 155.096 412.216 157.278 410.956C162.371 408.016 164.333 401.895 160.893 395.936C157.453 389.978 151.171 388.617 146.078 391.557ZM152.873 406.525C150.656 407.805 147.984 407.177 146.344 404.336C144.704 401.496 145.496 398.868 147.713 397.588C149.93 396.308 152.602 396.936 154.242 399.776C155.882 402.617 155.09 405.245 152.873 406.525Z" fill="#0088FE"/>
<path d="M169.7 340.042C167.861 339.924 149.977 339.629 122.266 370.378C94.9971 400.872 62.9766 401.659 62.7211 401.216C60.8816 401.098 59.1102 402.121 58.2927 403.773C57.4752 405.425 57.3559 407.264 58.3779 409.034L91.5908 466.56C92.3573 467.888 94.0094 468.704 95.8489 468.822C96.9901 468.753 116.969 469.609 139.554 456.57C147.967 451.712 156.501 445.015 164.897 436.037C189.39 408.916 203.595 408.975 203.595 408.975C205.434 409.093 207.205 408.071 208.278 406.861C209.096 405.209 209.215 403.37 208.193 401.6L173.958 342.304C172.749 341.232 171.54 340.16 169.7 340.042ZM195.317 400.774C187.21 403.095 173.669 410.322 156.501 429.675C133.967 455.075 107.158 458.753 98.9147 458.792L71.3224 411.001C83.807 409.103 108.129 402.141 130.22 376.996C148.904 356.179 161.44 351.301 166.89 350.515L195.76 400.518L195.317 400.774Z" fill="#0088FE"/>
<path d="M248.823 391.173L304.11 359.253L294.69 342.937L259.98 362.977L227.4 306.547L206.823 318.427L248.823 391.173ZM366.734 325.037C388.246 312.617 393.905 293.138 381.365 271.418L358.085 231.096L337.82 242.796L360.74 282.495C367.94 294.965 365.623 302.954 357.102 307.874C348.476 312.854 340.4 310.865 333.2 298.395L310.28 258.696L289.703 270.576L312.983 310.898C325.523 332.618 345.222 337.457 366.734 325.037ZM441.86 182.728L464.24 221.491L409.748 201.268L392.809 211.048L434.809 283.794L454.97 272.154L432.59 233.391L487.082 253.614L504.021 243.834L462.021 171.088L441.86 182.728ZM593.776 192.014L615.184 179.654L540.968 125.508L520.703 137.208L530.591 228.494L551.583 216.374L549.139 198.941L579.9 181.181L593.776 192.014ZM546.407 180.288L542.32 151.609L565.113 169.488L546.407 180.288ZM668.207 150.981C689.823 138.501 694.183 121.573 686.863 108.895C671.383 82.0825 634.926 114.216 628.506 103.097C626.406 99.4592 627.844 94.7494 636.469 89.7694C642.809 86.1094 650.748 84.02 659.87 83.7412L657.39 64.8045C647.819 64.7876 636.79 68.2452 627.333 73.7052C605.717 86.1852 601.237 102.905 608.737 115.896C624.337 142.916 660.838 110.618 667.498 122.153C669.538 125.687 667.593 129.997 659.071 134.917C650.653 139.777 639.828 142.147 630.925 141.606L632.93 160.679C642.549 161.5 656.256 157.881 668.207 150.981Z" fill="#0088FE"/>
<rect x="0.614258" y="388.984" width="777.969" height="166" rx="20" transform="rotate(-30 0.614258 388.984)" stroke="#0088FE" stroke-width="10"/>
</svg>
